<svg version="1.1" xmlns="http://www.w3.org/2000/svg" xmlns:xlink="http://www.w3.org/1999/xlink">
  <defs>
    <symbol id="icon-alert-success" viewBox="0 0 27 27">
        <path d="M13.5 0C6.056 0 0 6.056 0 13.5S6.056 27 13.5 27 27 20.944 27 13.5 20.944 0 13.5 0zm7.962 11.35l-8.406 8.407c-.283.283-.66.44-1.06.44-.402 0-.778-.157-1.062-.44L5.538 14.36c-.283-.282-.44-.66-.44-1.06s.157-.777.44-1.06c.566-.567 1.555-.567 2.12 0l4.336 4.334 7.345-7.346c.564-.566 1.553-.566 2.12 0 .586.585.586 1.537 0 2.122z"/>
    </symbol>
    <symbol id="icon-alert-danger" viewBox="0 0 27 27">
      <path d="M13.5 0C6.056 0 0 6.056 0 13.5S6.056 27 13.5 27c2.367 0 4.59-.617 6.527-1.69 2.238-1.203 4.08-3.045 5.282-5.283C26.38 18.09 27 15.867 27 13.5 27 6.056 20.944 0 13.5 0zm6.457 17.828c.585.585.585 1.536 0 2.12-.283.284-.66.44-1.06.44-.402 0-.778-.156-1.062-.44L13.5 15.615 9.165 19.95c-.566.565-1.555.565-2.12 0-.586-.586-.586-1.537 0-2.122l4.334-4.335-4.337-4.335c-.585-.585-.585-1.536 0-2.12.566-.567 1.555-.567 2.12 0L13.5 11.37l4.335-4.335c.566-.566 1.555-.566 2.12 0 .586.585.586 1.536 0 2.12L15.62 13.49l4.338 4.336z"/>
    </symbol>
    <symbol id="icon-alert-warning" viewBox="0 0 27 27">
      <path d="M13.5 0C6.056 0 0 6.056 0 13.5S6.056 27 13.5 27 27 20.944 27 13.5 20.944 0 13.5 0zM12 6.124c0-.757.673-1.373 1.5-1.373S15 5.37 15 6.126v9c0 .757-.673 1.373-1.5 1.373S12 15.88 12 15.124v-9zm1.5 16.127c-1.135 0-2.06-.922-2.06-2.06 0-1.134.925-2.06 2.06-2.06s2.06.926 2.06 2.06c0 1.138-.925 2.06-2.06 2.06z"/>
    </symbol>
    <symbol id="icon-alert-info" viewBox="0 0 29 29">
      <path d="M 13.503731,27.135463 C 20.947681,27.108103 26.981378,21.029878 26.954014,13.585928 26.926654,6.1419782 20.848429,0.10828119 13.404479,0.13564519 5.9605293,0.16300519 -0.07316773,6.2412302 -0.04580373,13.68518 c 0.02736,7.44395 6.10558503,13.477647 13.54953473,13.450283 z m 1.468846,-6.477585 c 0.0028,0.756995 -0.666771,1.695662 -1.493765,1.698702 -0.826995,0.003 -1.503835,-1.040411 -1.506614,-1.796406 l -0.02406,-6.545095 c -0.0028,-0.756995 0.667948,-1.375465 1.494943,-1.378505 0.826994,-0.003 1.502265,0.613482 1.505044,1.369477 z M 13.421936,6.8846132 c 1.134993,-0.0042 2.063376,0.914421 2.067559,2.052414 0.0042,1.1339918 -0.917421,2.0633858 -2.052414,2.0675578 -1.134992,0.0042 -2.06339,-0.918421 -2.067558,-2.0524128 -0.0042,-1.137993 0.917421,-2.063387 2.052413,-2.067559 z"/>
  </symbol>
  </defs>
</svg>
