<?xml version="1.0" encoding="iso-8859-1"?>
<!-- Generator: Adobe Illustrator 19.0.0, SVG Export Plug-In . SVG Version: 6.00 Build 0)  -->
<svg version="1.1" id="Capa_1" xmlns="http://www.w3.org/2000/svg" xmlns:xlink="http://www.w3.org/1999/xlink" x="0px" y="0px"
	 viewBox="0 0 488.912 488.912" style="enable-background:new 0 0 488.912 488.912;" xml:space="preserve">
<g>
	<path d="M480.621,448.4l-38.5-28.1c-13.4-8.5-26.2-12.7-37.9-14.2l51.4-137.7c1.8-5.4,3.2-19.6-12.5-26l-32.3-11.5v-59.2
		c0-42.9-36.1-79.4-84.3-87.7V20.8c0-11.4-9.4-20.8-20.8-20.8h-122.7c-11.4,0-20.8,9.4-20.8,20.8v62.8c-49.2,7.6-86.3,44.5-86.3,88
		v60.2l-29.1,10.5c-11.7,4-16.7,15.4-12.5,26l51.6,139.7c-13.9,1.6-27.2,6.4-38.1,14.3l-39.5,30.2c-9.4,6.2-10.4,18.7-4.2,28.1
		c4.2,5.2,14.9,13.3,29.1,4.2l39.5-30.2c28.4-17.2,51,2.1,51,2.1c27,19.8,69.7,19.8,96.8,0c0,0,21.3-17.5,48.9-1
		c27,19.8,69.7,19.8,96.8,0c0,0,22-20.5,52-3.1l38.5,28.1c8.3,6.2,21.8,5.2,28.1-4.2C491.021,468.2,489.921,454.6,480.621,448.4z
		 M203.821,40.6h82.2v40.6h-82.2L203.821,40.6L203.821,40.6z M223.621,411.3c-9.4,2.4-18.6,6.5-27,12.1c-1.2,0.8-26,18.2-52-1
		c-3.9-2.9-8.2-5.4-12.7-7.4l-52.9-141.4l144.6-51.6L223.621,411.3L223.621,411.3z M237.121,173.8l-119.6,43.1v-45.2
		c0-27,29.1-48.9,64.5-48.9h123.8c35.4,0,64.5,21.8,64.5,48.9v44.8l-119.6-42.7C246.521,171.7,241.321,171.7,237.121,173.8z
		 M356.621,414.1c-9.8,4.6-15.5,9.4-15.5,9.4c-12.5,9.4-35.4,9.4-47.9,0c-8.4-6.1-18-10.4-28.1-12.7V223.5l143.6,51.1L356.621,414.1
		z"/>
</g>
<g>
</g>
<g>
</g>
<g>
</g>
<g>
</g>
<g>
</g>
<g>
</g>
<g>
</g>
<g>
</g>
<g>
</g>
<g>
</g>
<g>
</g>
<g>
</g>
<g>
</g>
<g>
</g>
<g>
</g>
</svg>
