<svg xmlns="http://www.w3.org/2000/svg" xmlns:xlink="http://www.w3.org/1999/xlink" width="26" height="26" viewBox="0 0 30 38"><defs><path id="a" d="M0 .108h30.886v18.678H0z"/><path id="c" d="M.056.118h22.469v38.397H.056z"/></defs><circle cx="15" cy="19" r="19" fill="#69c4a0"/><g fill="none" fill-rule="evenodd"><g transform="translate(0 1.879)"><mask id="b" fill="#fff"><use xlink:href="#a"/></mask><path fill="#3F3F3F" d="M30.595 18.786a.292.292 0 0 1-.29-.293v-2.786c0-8.278-6.667-15.013-14.862-15.013S.58 7.43.58 15.707v2.786c0 .162-.13.293-.29.293a.292.292 0 0 1-.29-.293v-2.786C0 7.106 6.928.108 15.443.108s15.443 6.998 15.443 15.599v2.786c0 .162-.13.293-.29.293" mask="url(#b)"/></g><path fill="#EB837C" d="M5.875 23.485H4.829c-.198 0-.572-.245-.572-.44v-.108l.086-.004-.04-.021a4.307 4.307 0 0 1-2.421-1.503 4.207 4.207 0 0 1-.943-2.673c0-2 1.42-3.733 3.41-4.175l-.01-.021-.082-.005v-.096c0-.195.374-.348.572-.348h.694l2.932 4.256-2.58 5.138z"/><path fill="#3F3F3F" d="M5.275 14.573c-.049 0-.197.059-.197.086v.066l-.129.298-.12.03c-1.943.399-3.29 1.94-3.29 3.744 0 .87.333 1.72.928 2.397a4.264 4.264 0 0 0 2.368 1.346l.092.027.151.292v.075c0 .01.138.069.197.069h.845l2.568-4.262-2.862-4.168h-.551zm1.205 8.912H5.275c-.313 0-.647-.167-.716-.46-1.006-.237-1.911-.758-2.563-1.497a4.142 4.142 0 0 1-1.057-2.736c0-2.017 1.48-3.708 3.62-4.214.065-.285.377-.487.716-.487h.889l3.23 4.633-2.914 4.76z"/><path fill="#3F3F3F" d="M6.362 23.485H5.48c-.414 0-.783-.222-.783-.466v-8.44c0-.219.262-.39.509-.446a.536.536 0 0 1 .16-.042h.107v.375c-.155 0-.31.05-.31.112v8.441c0 .044.205.095.305.095h.894c.118 0 .214.092.214.185 0 .094-.096.186-.214.186M.678 19.727H.261c-.144 0-.261-.231-.261-.47 0-.237.117-.47.26-.47h.418c.145 0 .261.233.261.47 0 .239-.116.47-.26.47"/><path fill="#EB837C" d="M22.545 18.347l2.945-4.256h.696c.199 0 .214.153.214.348v.096l.094.005.13.02c2 .443 3.437 2.176 3.437 4.176a4.2 4.2 0 0 1-.95 2.673 4.384 4.384 0 0 1-2.454 1.503l-.165.02-.092.005v.108c0 .195-.015.44-.214.44h-1.05l-2.59-5.138z"/><path fill="#3F3F3F" d="M24.89 23.003h.723v-.417l.396-.022.15-.02c.93-.194 1.771-.673 2.367-1.347a3.628 3.628 0 0 0 .924-2.398c0-1.771-1.391-3.344-3.31-3.743l-.132-.017-.395-.015v-.451h-.43l-2.869 4.169 2.576 4.261zm.847.482h-1.209l-2.922-4.761 3.239-4.633h.892c.174 0 .282.033.343.088a.45.45 0 0 1 .144.346l.039-.003c2.2.452 3.798 2.25 3.798 4.28 0 .997-.376 1.969-1.058 2.74-.685.776-1.653 1.323-2.724 1.542l-.055.007a.382.382 0 0 1-.132.296c-.087.08-.207.098-.355.098z"/><path fill="#3F3F3F" d="M25.931 23.485h-1.28c-.125 0-.227-.092-.227-.186 0-.093.102-.185.227-.185h1.208s-.067-.07-.067-.095v-8.44c0-.032.034-.061.035-.088 0-.008.017-.016.017-.024H25.7c-.125 0-.223-.094-.223-.188s.106-.188.231-.188h.224c.045 0 .181.018.283.096.106.082.09.2.086.305-.001.023-.015.058-.015.086v8.441c0 .03.014.055.015.077.003.09.013.211-.082.285a.54.54 0 0 1-.287.104m3.915-3.758h-.512c-.118 0-.214-.231-.214-.47 0-.237.096-.47.214-.47h.512c.118 0 .214.233.214.47 0 .239-.096.47-.214.47"/><path fill="#69C4A0" d="M26.158 6.091c-.687.087-1.394.032-1.82-.4C23.296 4.635 20.99.94 16.996.94c-3.994 0-6.558 1.682-8.102 4.078-1.041 1.615-3.258 2.66-3.258 4.35 0 1.878.765 6.858.649 9.706 0 6.53 1.058 12.725 1.058 13.312 0 1.154 5.762 6.13 8.366 6.13 2.603 0 8.312-4.625 8.312-6.13 0-.587 1.058-6.878 1.058-13.408-.083-2.056.304-6.187.519-9.003l.188-.255c.543-.704.897-1.394 1.338-2.214a.962.962 0 0 0-.966-1.414"/><path fill="#F6F7F2" d="M24.424 17.084c0 1.668-.21 7.386-.458 10.155-.092.007-16.806.003-16.938-.015-.246-2.636-.452-8.474-.452-10.128 0-1.521.421-4.364.588-5.426a.471.471 0 0 1 .496-.393l.82.046h.022l.517.03 1.568.088.497.028.132.007h.028c1.814.1 3.682.194 4.256.193.197 0 .55-.011 1-.03 1.908-.078 5.588-.292 6.84-.365a.469.469 0 0 1 .496.39c.035.216.079.506.128.844.194 1.32.46 3.365.46 4.576"/><path fill="#EBECE8" d="M22.922 11.273h-.028c-1.187.08-4.677.312-6.487.396-.426.022-.76.033-.947.033h-.01c-.557 0-2.316-.102-4.026-.208l-.026-.001-.125-.008c2.017 2.093 4.243 3.545 6.7 3.545 1.721 0 3.556-.713 5.512-2.418a72.556 72.556 0 0 0-.12-.915c-.034-.245-.222-.424-.443-.424"/><path fill="#3F3F3F" d="M7.565 27.577c1.887.01 13.915.014 15.863.005.228-2.887.42-8.428.42-10.062 0-1.523-.395-4.356-.565-5.504a.17.17 0 0 0-.178-.148c-3.075.19-5.366.32-6.626.374-.432.02-.78.031-.98.031h-.009c-.517 0-2.032-.074-4.761-.234a650.996 650.996 0 0 1-2.834-.171.17.17 0 0 0-.178.147c-.17 1.147-.566 3.98-.566 5.502 0 1.716.19 7.296.414 10.06zm-.264.294h.001zm16.392.006zm-5.348.305c-4.774 0-11.012-.007-11.082-.017l-.228-.031-.02-.236c-.236-2.669-.44-8.599-.44-10.38 0-1.563.4-4.432.573-5.593a.746.746 0 0 1 .783-.65c.567.035 1.65.102 2.83.17 2.683.157 4.23.234 4.73.234h.008c.191 0 .53-.011.955-.031 1.258-.054 3.545-.183 6.616-.373a.748.748 0 0 1 .782.651c.172 1.161.572 4.03.572 5.594 0 1.74-.201 7.518-.444 10.383l-.021.251-.244.02c-.074.005-2.448.008-5.37.008z"/><path fill="#69C4A0" d="M10.333 10.333c4.1 3.953 9.048 5.91 15.03.142l-15.03-.142z"/><path fill="#3F3F3F" d="M8.199 22.063c.429 1.215 1.326 1.781 2.82 1.781 1.982 0 2.708-.752 3.157-1.487.183-.3.425-1.586.154-2.307-.114-.304-.269-.353-.32-.37-1.237-.393-4.825-.505-5.569.236-.423.422-.395 1.525-.242 2.147m2.82 2.361c-1.733 0-2.869-.734-3.375-2.183l-.007-.025c-.13-.516-.312-2.009.393-2.71 1.007-1.003 4.887-.781 6.157-.378.217.069.512.25.688.72.334.885.065 2.373-.202 2.81-.745 1.221-1.872 1.766-3.653 1.766m5.97-4.744c-.051.017-.206.066-.32.37-.27.72-.029 2.006.154 2.307.45.735 1.175 1.487 3.157 1.487 1.495 0 2.391-.566 2.82-1.78.153-.623.182-1.726-.242-2.148-.744-.74-4.332-.628-5.57-.235m2.992 4.743c-1.782 0-2.909-.545-3.654-1.766-.267-.437-.536-1.925-.202-2.81.176-.47.471-.651.688-.72 1.27-.403 5.15-.625 6.157.378.705.701.523 2.194.393 2.71l-.007.025c-.506 1.449-1.642 2.183-3.375 2.183"/><path fill="#3F3F3F" d="M14.337 20.667c-.096 0-.187-.07-.227-.186-.053-.154.006-.332.13-.398l.568-.297a.5.5 0 0 1 .48.005l.536.294c.124.068.18.248.124.401-.055.154-.2.222-.324.154l-.535-.294a.092.092 0 0 0-.09 0l-.567.297a.206.206 0 0 1-.095.024"/><path fill="#62B592" d="M15.03 35.697h-.1a29.636 29.636 0 0 1-3.503-.236c-.1-.014-.167-.098-.152-.187.015-.09.109-.152.207-.138.064.009 6.401.87 8.242-.795 1.245-1.126.096-4.03.085-4.06-.034-.085.014-.18.109-.21.094-.032.198.013.233.098.05.127 1.237 3.132-.17 4.405-.824.745-2.49 1.123-4.95 1.123"/><path fill="#62B592" d="M13.239 34.758c-1.825 0-3.562-.224-3.696-.242a.166.166 0 0 1-.147-.186c.013-.09.1-.153.193-.141.016.002 1.55.202 3.233.233 2.193.042 3.64-.214 4.187-.738 1.293-1.242-.402-3.335-.42-3.356a.16.16 0 0 1 .03-.232.177.177 0 0 1 .24.027c.08.095 1.903 2.345.393 3.794-.69.662-2.386.84-4.013.84"/><path fill="#62B592" d="M12.794 32.879c-.563 0-1.239-.038-2.03-.115-1.6-.154-3.09-.416-3.104-.419a.176.176 0 0 1 .06-.347c1.625.288 6.019.89 6.827.233a.335.335 0 0 0 .134-.27c.01-.514-.781-1.323-1.087-1.591a.177.177 0 0 1-.017-.249.174.174 0 0 1 .247-.017c.125.11 1.22 1.094 1.206 1.863a.692.692 0 0 1-.263.539c-.308.249-.959.373-1.973.373m10.467 0c-.09 0-.175-.038-.21-.1-.006-.012-.696-1.265-1.429-2.507-.046-.079.01-.168.124-.2s.245.006.291.085a111.91 111.91 0 0 1 1.433 2.514c.044.08-.014.168-.13.198a.322.322 0 0 1-.079.01m2.686-24.424c-.806 0-1.889-.258-3.138-.764-3.399-1.375-6.84-4.076-6.84-6.576 0-.097.081-.176.18-.176.1 0 .18.08.18.176 0 2.321 3.41 4.953 6.618 6.252 1.917.775 3.483.958 3.988.464a.183.183 0 0 1 .255 0c.07.069.07.18 0 .248-.257.252-.684.376-1.243.376m-1.891 1.878a9.878 9.878 0 0 1-1.752-.185c-3.776-.713-8.927-3.243-11.017-8.025a.174.174 0 0 1 .092-.23.177.177 0 0 1 .232.091c2.034 4.656 7.067 7.123 10.759 7.82 1.476.28 2.472.203 2.693-.016a.177.177 0 0 1 .25 0 .174.174 0 0 1 0 .247c-.218.216-.69.298-1.257.298"/><path fill="#62B592" d="M20.072 12.212a13.2 13.2 0 0 1-2.477-.242c-2.006-.387-6.911-1.845-9.125-7.02a.183.183 0 0 1 .085-.237.166.166 0 0 1 .224.09c2.148 5.02 6.923 6.439 8.877 6.815 2.783.537 5.447.151 6.479-.937a.163.163 0 0 1 .24 0 .186.186 0 0 1 0 .253c-.782.824-2.402 1.278-4.303 1.278"/><path fill="#EFEFEF" d="M25.166 26.303a115.37 115.37 0 0 1-.433 3.547c.684-1.184.71-2.738.55-3.44a.139.139 0 0 0-.117-.107m-18.397.01a.14.14 0 0 0-.088.101c-.169.744-.226 2.443.552 3.647a116.49 116.49 0 0 1-.464-3.748"/><path fill="#62B896" d="M24.398 26.303a.141.141 0 0 0-.134.096c-.09.247-.229.552-.436.84-.334.465-.846.888-1.612.958-.074.006-.149.01-.226.01-.832 0-2.094-1.409-3.951-1.409a3.41 3.41 0 0 0-1.425.323l-2.295-.042a3.367 3.367 0 0 0-1.329-.28c-1.857 0-3.119 1.408-3.95 1.408a2.38 2.38 0 0 1-.331-.023c-.827-.113-1.342-.644-1.652-1.167a3.55 3.55 0 0 1-.291-.617.14.14 0 0 0-.19-.084c.158 1.609.328 2.97.45 3.93.13.218.284.42.467.6.654.644 1.67 1.093 3.211 1.093 1.551 0 2.662-.316 3.421-.673-.252-.41-.658-.825-.857-1.004a.182.182 0 0 1-.017-.251.17.17 0 0 1 .244-.018c.085.076.617.564.942 1.114.556-.306.87-.612.998-.753a.092.092 0 0 1 .068-.03.09.09 0 0 1 .067.03c.166.18.648.636 1.553 1.013a5.492 5.492 0 0 0-.754-1.462.182.182 0 0 1 .029-.25.169.169 0 0 1 .242.029c.045.058.655.865.897 1.838a8.27 8.27 0 0 0 2.218.402 9.943 9.943 0 0 0-.345-1.358.18.18 0 0 1 .103-.228.166.166 0 0 1 .06-.011c.07 0 .137.045.162.117.02.06.238.686.377 1.493l.212.002c.822 0 1.495-.147 2.044-.394a107.33 107.33 0 0 0-.478-1.234.18.18 0 0 1 .096-.233.173.173 0 0 1 .225.098c.163.415.323.83.469 1.212a3.48 3.48 0 0 0 .74-.563c.235-.233.427-.505.584-.799.119-.947.274-2.227.42-3.72a.134.134 0 0 0-.026-.003"/><path fill="#5CAA89" d="M19.956 30.06a.246.246 0 0 0-.079.013c-.118.04-.179.159-.136.267.006.016.274.698.455 1.585.153.007.31.012.47.014a10.529 10.529 0 0 0-.496-1.741.228.228 0 0 0-.214-.137m-3.852-.001a.116.116 0 0 0-.083.039c-.059.06-.068.17-.022.246.007.012.387.649.588 1.441.1.053.208.105.322.153a6.155 6.155 0 0 0-.699-1.812.124.124 0 0 0-.106-.066m-2.82-.001a.134.134 0 0 0-.1.044.124.124 0 0 0 .013.18c.152.127.462.423.656.716a4.29 4.29 0 0 0 .238-.113c-.249-.393-.656-.741-.72-.795a.135.135 0 0 0-.087-.031m8.525-.001a.185.185 0 0 0-.076.017c-.104.047-.154.18-.112.295.195.537.386 1.075.56 1.567.127-.062.248-.129.364-.2a171.75 171.75 0 0 0-.549-1.537.204.204 0 0 0-.187-.141"/><path fill="#63BA95" d="M24.131 29.886c-.677.655-1.695 1.114-3.19 1.114-3.184 0-4.588-1.256-4.902-1.585a.095.095 0 0 0-.138 0c-.31.331-1.694 1.585-4.877 1.585-1.59 0-2.636-.449-3.31-1.094-1.276-1.216-1.23-3.508-1.033-4.423a.148.148 0 0 1 .283-.023c.069.184.166.4.3.617.32.523.85 1.054 1.703 1.168a2.5 2.5 0 0 0 .342.022c.856 0 2.157-1.408 4.071-1.408.521 0 .985.12 1.37.28l2.365.043c.404-.18.903-.323 1.47-.323 1.913 0 3.214 1.408 4.072 1.408.08 0 .157-.003.232-.01.79-.07 1.318-.492 1.662-.957a3.47 3.47 0 0 0 .45-.84c.052-.138.251-.124.282.019.197.91.111 3.187-1.152 4.407"/><path fill="#3F3F3F" d="M23.778 24.854zm.26.02zm-9.147 3.669l.004.003a.08.08 0 0 1-.004-.003zm.142-.504h.002c.104 0 .205.053.276.124.228.223 1.485 1.354 4.496 1.354 1.235 0 2.223-.31 2.85-.928.88-.843 1.206-2.338 1.142-3.274-.079.137-.144.266-.239.385a2.514 2.514 0 0 1-1.806.974c-.091.007-.167.01-.245.01-.407 0-.844-.224-1.354-.483-.692-.353-1.552-.791-2.59-.791-.438 0-.877.09-1.306.269l-.058.024-2.411-.04-.05-.02a3.353 3.353 0 0 0-1.218-.233c-1.038 0-1.9.439-2.592.791-.509.26-.948.483-1.355.483-.125 0-.25-.008-.369-.023-.771-.096-1.414-.505-1.858-1.183a3.278 3.278 0 0 1-.108-.175c-.092.933.043 2.463.988 3.305.681.607 1.694.915 3.01.915.529 0 3.23-.076 4.517-1.36a.41.41 0 0 1 .278-.124zm4.817 2.022c-2.846 0-4.29-.94-4.816-1.388-.517.447-1.946 1.388-4.796 1.388-1.47 0-2.616-.358-3.408-1.064-1.248-1.112-1.327-3.199-1.083-4.253a.421.421 0 0 1 .39-.318.43.43 0 0 1 .435.258c.074.184.163.356.267.513.356.544.842.857 1.444.931.094.012.193.018.293.018.259 0 .639-.193 1.078-.417.75-.382 1.683-.857 2.868-.857.468 0 .934.086 1.387.255l2.176.036a3.988 3.988 0 0 1 1.481-.29c1.185 0 2.118.474 2.868.856.44.224.82.417 1.08.417.063 0 .13-.002.203-.008a1.937 1.937 0 0 0 1.402-.758 2.81 2.81 0 0 0 .398-.695.434.434 0 0 1 .437-.26c.192.014.347.14.387.316.19.817.153 3.019-1.197 4.236-.797.72-1.905 1.084-3.294 1.084z"/><path fill="#F6F7F2" d="M16.583 24.784c.177.703.326 1.341.326 1.497 0 .385-.658.961-1.409.961s-1.41-.576-1.41-.96c0-.256.397-1.79.665-2.797"/><path fill="#3F3F3F" d="M16.51 24.756s.044.103.108.289a9.45 9.45 0 0 1 .242.782c.01.043.022.086.031.134.005.024.01.05.013.08l.005.053-.002.06-.001.033a1.126 1.126 0 0 1-.027.128l-.017.047a.995.995 0 0 1-.082.172 1.534 1.534 0 0 1-1.17.703l-.046.003-.024.002h-.034l-.076-.003-.04-.003-.05-.006-.1-.015a1.676 1.676 0 0 1-.352-.115 1.564 1.564 0 0 1-.597-.47.942.942 0 0 1-.192-.43 1.445 1.445 0 0 1-.007-.077v-.019l-.001-.004v-.026l.003-.02c0-.022.006-.064.011-.1l.016-.093.017-.082c.092-.423.195-.796.287-1.12a25.546 25.546 0 0 1 .334-1.063c.029-.088.118-.133.199-.1.071.028.112.109.099.188l-.05.304a56.33 56.33 0 0 1-.146.795l-.1.528a17.007 17.007 0 0 0-.128.719c-.002.017-.005.027-.006.059l-.001.02v-.01l.001.001a1.16 1.16 0 0 0 .713.526l.053.008.025.005.037.002.076.004.049-.001c.159-.002.318-.056.462-.128.143-.073.272-.176.353-.282.018-.026.038-.051.048-.074l.01-.016.002-.002c.002-.001.004 0 .006-.003l.006-.034.002-.016.001-.009.021-.004c.001-.022.02.028.02.022 0-.005-.02-.005-.02-.014 0-.015-.01-.032-.013-.052-.003-.04-.012-.08-.015-.119-.016-.16-.043-.312-.058-.447l-.044-.35c-.024-.195-.033-.308-.033-.308-.005-.058.033-.11.086-.114.043-.004.096.022.096.062z"/><g transform="translate(4.697)"><mask id="d" fill="#fff"><use xlink:href="#c"/></mask><path fill="#3F3F3F" d="M21.678 7.104l-.006.01-.032.06-.062.115c-.084.154-.17.307-.255.458-.344.604-.7 1.186-1.09 1.717a7.927 7.927 0 0 1-.3.385c-.05.064-.102.12-.153.179a6.462 6.462 0 0 1-.165.175l-.346.339-.172.168-.176.16-.35.317-.358.298-.178.147-.182.139c-.122.09-.24.185-.362.272-.488.348-.987.65-1.487.909a8.958 8.958 0 0 1-1.519.595 6.83 6.83 0 0 1-1.497.253c-.244.02-.484.012-.72.01l-.349-.027c-.115-.006-.228-.029-.34-.042a7.395 7.395 0 0 1-1.272-.303c-.2-.059-.39-.14-.577-.21-.183-.08-.364-.156-.534-.24a12.357 12.357 0 0 1-1.758-1.05c-.487-.35-.89-.667-1.207-.938-.16-.133-.296-.256-.415-.362a17.64 17.64 0 0 1-.298-.268l-.243-.222a.077.077 0 0 0-.104.001.08.08 0 0 0-.004.111l.224.242c.073.08.165.179.28.292.113.115.244.248.398.393.303.293.69.644 1.175 1.021.483.379 1.069.78 1.773 1.15.176.092.363.175.553.263.195.078.391.166.601.234.414.15.866.262 1.342.337.476.077.981.107 1.502.073a7.28 7.28 0 0 0 1.592-.27 9.396 9.396 0 0 0 1.6-.626c.524-.27 1.043-.585 1.548-.945.127-.09.249-.187.374-.281l.188-.143.183-.152.369-.307.359-.325.181-.164.176-.172.353-.347a7.34 7.34 0 0 0 .175-.185l.02-.023-.05.612c-.067.843-.174 2.08-.284 3.657a70.1 70.1 0 0 0-.137 2.621c-.004.24-.012.483-.01.735 0 .127-.001.254.003.38.001.062-.006.125-.005.19l-.008.047v.042l.008.096c-.007.512-.002 1.043-.023 1.59a89.441 89.441 0 0 1-.531 7.35 144.68 144.68 0 0 1-.243 2.054l-.135 1.057-.068.537-.032.281c-.005.047-.012.097-.014.141l-.01.147c0 .115-.063.272-.133.417a3.403 3.403 0 0 1-.273.437 8.17 8.17 0 0 1-.698.825c-.508.53-1.07 1.027-1.662 1.5a20.25 20.25 0 0 1-1.88 1.332c-.658.407-1.35.783-2.079 1.053-.365.133-.738.237-1.105.262l-.152.008-.057-.001c-.023-.001-.045 0-.068-.003a2.545 2.545 0 0 1-.278-.035 4.065 4.065 0 0 1-.56-.145c-.746-.25-1.467-.646-2.165-1.082a21.53 21.53 0 0 1-2.03-1.46 19.817 19.817 0 0 1-1.877-1.71 7.179 7.179 0 0 1-.795-.971 1.872 1.872 0 0 1-.141-.254.867.867 0 0 1-.045-.13c-.002-.001-.004-.008-.005-.025 0-.007-.002-.044-.002-.025l-.003-.047c-.006-.13-.02-.238-.033-.349l-.04-.33c-.111-.876-.227-1.75-.329-2.63a99.848 99.848 0 0 1-.488-5.33 71.034 71.034 0 0 1-.144-5.393 40.67 40.67 0 0 0-.145-2.719c-.074-.901-.162-1.799-.25-2.693-.086-.893-.181-1.79-.23-2.668-.006-.11-.014-.217-.016-.329L.904 9.04c.002-.196.039-.39.106-.576.135-.375.386-.716.668-1.033.572-.634 1.264-1.186 1.862-1.86.15-.17.291-.34.428-.534l.365-.537c.058-.089.127-.17.19-.254.066-.083.127-.17.196-.25l.207-.238.104-.12.11-.111A8.024 8.024 0 0 1 7.12 2.02a8.913 8.913 0 0 1 2.303-.833c.397-.089.8-.147 1.2-.19.2-.015.398-.035.6-.046l.614-.017c.78-.004 1.565.14 2.283.43a7.74 7.74 0 0 1 1.983 1.182c.6.482 1.139 1.03 1.641 1.603.252.286.494.578.739.87.124.148.244.29.38.44l.098.103a1.515 1.515 0 0 0 .401.293c.39.193.801.224 1.185.214.096-.003.194-.01.29-.02.045-.004.091-.011.134-.014.035 0 .07-.005.105-.004.138.004.27.049.382.128a.73.73 0 0 1 .3.712c-.001.037-.015.057-.02.087l-.004.02c-.002.008-.009.02-.013.03l-.027.06-.014.031a.113.113 0 0 1-.001.004m.636-1.13a1.501 1.501 0 0 0-1.5-.746 3.57 3.57 0 0 1-.442.03c-.285 0-.668-.045-.88-.26-.154-.157-.353-.396-.584-.672C17.68 2.856 15.394.118 11.84.118c-1.966 0-3.707.404-5.174 1.199-1.33.721-2.442 1.766-3.301 3.105-.353.549-.886 1.052-1.402 1.539C1.025 6.845.056 7.76.056 9.051c0 .785.124 2.042.267 3.498.206 2.09.446 4.46.38 6.096l.006.011v.012c0 5.017.607 9.762.902 12.042.069.537.131 1.044.133 1.15 0 .303.121.785 1.081 1.828.605.657 1.422 1.402 2.303 2.097 1.04.82 3.653 2.73 5.442 2.73 1.894 0 4.62-1.987 5.411-2.596.79-.607 3.366-2.697 3.366-4.06 0-.106.003-.619.073-1.163.294-2.307.845-7.107.845-12.123v-.012l.062-.012c-.066-1.638.215-4.75.416-7.252.04-.5.094-.981.13-1.432l.09-.112c.515-.67.861-1.311 1.257-2.052l.118-.217a1.537 1.537 0 0 0-.024-1.51" mask="url(#d)"/></g></g></svg>